<svg xmlns="http://www.w3.org/2000/svg" width="32" height="32" viewBox="0 0 32 32" fill="none">
  <!-- Rounded Frame Background -->
  <rect width="32" height="32" rx="7" fill="#0c0c0e" stroke="rgba(255,255,255,0.12)" stroke-width="1.5"/>
  <!-- B Letter Monogram (White) -->
  <path d="M10 9H15.5C17.1569 9 18.5 10.3431 18.5 12C18.5 13.3569 17.5936 14.5782 16.1507 15.083C17.6064 15.5541 18.5 16.7896 18.5 18.1684C18.5 20.3263 16.7263 22 14.5684 22H10V9Z" stroke="#ffffff" stroke-width="2.5" stroke-linejoin="round" />
  <!-- S Letter Monogram (Orange/Pink blend) -->
  <path d="M17.5 21C19.5 21 21.5 20 21.5 18C21.5 16 19.5 16.3 19.5 15C19.5 13.7 21.5 13.7 21.5 11.7C21.5 9.7 19.5 9.7 17.5 9.7" stroke="#ff6b35" stroke-width="2.5" stroke-linecap="round" stroke-linejoin="round" />
</svg>